<?xml version="1.0" standalone="no"?>
<!DOCTYPE svg PUBLIC "-//W3C//DTD SVG 20010904//EN"
 "http://www.w3.org/TR/2001/REC-SVG-20010904/DTD/svg10.dtd">
<svg version="1.0" xmlns="http://www.w3.org/2000/svg"
 width="512.000000pt" height="512.000000pt" viewBox="0 0 512.000000 512.000000"
 preserveAspectRatio="xMidYMid meet">

<g transform="translate(0.000000,512.000000) scale(0.100000,-0.100000)"
fill="#000000" stroke="none">
<path d="M530 2560 l0 -2560 2030 0 2030 0 0 2073 0 2072 -488 488 -487 487
-1543 0 -1542 0 0 -2560z m2870 1815 l0 -445 440 0 440 0 0 -1815 0 -1815
-1720 0 -1720 0 0 2260 0 2260 1280 0 1280 0 0 -445z m490 40 l175 -175 -178
0 -177 0 0 175 c0 96 1 175 3 175 1 0 81 -79 177 -175z"/>
<path d="M2610 4575 l0 -55 -37 0 c-101 0 -224 -63 -283 -143 -17 -23 -39 -66
-51 -97 -29 -78 -24 -195 14 -271 55 -112 168 -191 293 -204 l64 -7 0 -54 0
-54 -135 0 -135 0 0 -150 0 -150 135 0 135 0 0 -55 0 -55 155 0 155 0 0 54 0
54 63 4 c79 5 160 43 220 103 173 176 124 459 -99 573 -33 17 -137 42 -176 42
-5 0 -8 25 -8 55 l0 55 135 0 135 0 0 150 0 150 -135 0 -135 0 0 55 0 55 -155
0 -155 0 0 -55z m0 -410 c0 -54 -1 -55 -28 -55 -60 0 -83 78 -29 100 50 20 57
14 57 -45z m371 -375 c23 -13 26 -62 3 -84 -8 -9 -26 -16 -40 -16 -22 0 -24 3
-24 55 0 49 2 55 21 55 11 0 29 -5 40 -10z"/>
<path d="M1090 4460 l0 -150 455 0 455 0 0 150 0 150 -455 0 -455 0 0 -150z"/>
<path d="M1090 3955 l0 -155 455 0 455 0 0 155 0 155 -455 0 -455 0 0 -155z"/>
<path d="M1090 3445 l0 -155 455 0 455 0 0 155 0 155 -455 0 -455 0 0 -155z"/>
<path d="M2370 3039 c-471 -75 -862 -407 -1014 -861 -57 -171 -74 -429 -41
-613 91 -506 483 -909 989 -1017 142 -30 370 -30 512 0 441 94 801 414 943
838 82 245 84 555 5 792 -153 458 -545 788 -1024 862 -77 12 -293 11 -370 -1z
m40 -704 l0 -395 -400 0 -399 0 5 33 c14 76 75 233 120 308 58 95 160 209 247
275 105 80 314 170 400 173 l27 1 0 -395z m404 379 c85 -21 248 -102 327 -162
147 -112 266 -276 325 -449 45 -131 58 -224 51 -363 -19 -412 -289 -752 -694
-877 -80 -24 -103 -27 -258 -27 -187 -1 -245 9 -380 67 -56 24 -163 84 -185
104 -2 2 157 165 353 361 l357 357 0 503 0 502 21 0 c12 0 49 -7 83 -16z
m-831 -1286 c-230 -230 -202 -220 -267 -98 -40 76 -80 179 -90 233 -4 21 -10
45 -13 53 -4 12 37 14 283 14 l289 0 -202 -202z"/>
</g>
</svg>
