<?xml version="1.0" standalone="no"?>
<!DOCTYPE svg PUBLIC "-//W3C//DTD SVG 20010904//EN"
 "http://www.w3.org/TR/2001/REC-SVG-20010904/DTD/svg10.dtd">
<svg version="1.0" xmlns="http://www.w3.org/2000/svg"
 width="512.000000pt" height="512.000000pt" viewBox="0 0 512.000000 512.000000"
 preserveAspectRatio="xMidYMid meet">

<g transform="translate(0.000000,512.000000) scale(0.100000,-0.100000)"
fill="#000000" stroke="none">
<path d="M452 5100 c-109 -29 -187 -74 -272 -160 -87 -86 -131 -163 -160 -276
-20 -76 -20 -118 -20 -2104 0 -1986 0 -2028 20 -2104 29 -113 73 -190 160
-276 86 -87 163 -131 276 -160 68 -18 111 -20 371 -20 l293 0 0 199 0 200
-293 3 -294 3 -40 27 c-22 15 -51 44 -64 65 l-24 38 0 2025 0 2025 24 38 c13
21 42 50 64 65 l41 27 1225 0 1226 0 38 -24 c21 -13 50 -42 65 -64 l27 -41 3
-713 3 -713 199 0 200 0 0 713 c0 678 -1 718 -20 791 -29 113 -73 190 -160
276 -86 87 -163 131 -276 160 -75 19 -114 20 -1308 19 -1179 0 -1234 -1 -1304
-19z"/>
<path d="M760 3360 l0 -200 1000 0 1000 0 0 200 0 200 -1000 0 -1000 0 0 -200z"/>
<path d="M3920 3160 l0 -400 -400 0 -400 0 0 -400 0 -400 -400 0 -400 0 0
-400 0 -400 -400 0 -400 0 0 -580 0 -580 1800 0 1800 0 0 1780 0 1780 -600 0
-600 0 0 -400z m800 -1380 l0 -1380 -200 0 -200 0 0 1380 0 1380 200 0 200 0
0 -1380z m-800 -400 l0 -980 -200 0 -200 0 0 980 0 980 200 0 200 0 0 -980z
m-800 -400 l0 -580 -200 0 -200 0 0 580 0 580 200 0 200 0 0 -580z m-800 -400
l0 -180 -200 0 -200 0 0 180 0 180 200 0 200 0 0 -180z"/>
<path d="M760 2560 l0 -200 1000 0 1000 0 0 200 0 200 -1000 0 -1000 0 0 -200z"/>
<path d="M760 1760 l0 -200 600 0 600 0 0 200 0 200 -600 0 -600 0 0 -200z"/>
</g>
</svg>
