<?xml version="1.0" standalone="no"?>
<!DOCTYPE svg PUBLIC "-//W3C//DTD SVG 20010904//EN"
 "http://www.w3.org/TR/2001/REC-SVG-20010904/DTD/svg10.dtd">
<svg version="1.0" xmlns="http://www.w3.org/2000/svg"
 width="512.000000pt" height="512.000000pt" viewBox="0 0 512.000000 512.000000"
 preserveAspectRatio="xMidYMid meet">

<g transform="translate(0.000000,512.000000) scale(0.100000,-0.100000)"
fill="#000000" stroke="none">
<path d="M1342 4675 c-81 -19 -210 -88 -274 -145 -112 -100 -184 -238 -208
-395 -7 -48 -10 -569 -8 -1625 l3 -1555 28 -82 c54 -161 169 -295 317 -373
129 -67 155 -70 591 -70 385 0 386 0 430 23 68 36 103 93 107 175 4 83 -23
142 -87 187 l-43 30 -382 5 -383 5 -48 30 c-36 22 -57 45 -77 84 l-28 53 0
1538 0 1538 28 53 c20 39 41 62 77 84 l48 30 1127 0 1127 0 48 -30 c36 -22 57
-45 77 -84 l28 -53 0 -362 0 -362 25 -51 c89 -178 352 -143 396 51 7 35 9 169
7 416 -4 304 -7 375 -21 425 -52 183 -177 333 -343 414 -130 63 -76 61 -1349
60 -910 -1 -1171 -3 -1213 -14z"/>
<path d="M1870 3621 c-104 -32 -160 -106 -160 -211 0 -84 53 -161 132 -194 33
-14 125 -16 720 -16 643 0 685 2 723 19 77 36 125 111 125 196 0 83 -39 148
-115 188 -40 22 -45 22 -720 24 -374 1 -691 -2 -705 -6z"/>
<path d="M3830 2899 c-70 -14 -160 -63 -212 -116 -35 -36 -159 -243 -483 -803
-239 -415 -442 -777 -451 -805 -15 -51 -43 -403 -45 -576 -1 -110 15 -181 59
-250 116 -181 346 -252 537 -165 74 34 494 317 537 362 46 48 895 1518 921
1594 15 43 18 74 15 145 -10 198 -74 277 -353 438 -324 188 -376 205 -525 176z
m275 -525 l183 -105 -82 -142 c-45 -78 -232 -401 -414 -717 l-332 -576 -196
-128 c-107 -71 -196 -127 -198 -125 -3 2 2 108 10 236 l14 231 413 716 c226
393 413 715 415 716 2 0 86 -48 187 -106z"/>
<path d="M1819 2747 c-24 -13 -57 -43 -74 -66 -27 -39 -30 -50 -30 -120 0 -68
3 -82 27 -117 15 -21 44 -50 65 -64 l37 -25 528 -3 c505 -2 529 -2 565 17 163
83 163 299 1 382 -35 18 -65 19 -556 19 l-519 0 -44 -23z"/>
<path d="M1840 1904 c-78 -34 -130 -111 -130 -194 0 -88 38 -152 115 -193 37
-21 57 -22 295 -25 304 -4 343 2 406 60 111 102 87 275 -47 342 l-53 26 -275
0 c-224 -1 -283 -4 -311 -16z"/>
</g>
</svg>
