<?xml version="1.0" standalone="no"?>
<!DOCTYPE svg PUBLIC "-//W3C//DTD SVG 20010904//EN"
 "http://www.w3.org/TR/2001/REC-SVG-20010904/DTD/svg10.dtd">
<svg version="1.0" xmlns="http://www.w3.org/2000/svg"
 width="512.000000pt" height="512.000000pt" viewBox="0 0 512.000000 512.000000"
 preserveAspectRatio="xMidYMid meet">

<g transform="translate(0.000000,512.000000) scale(0.100000,-0.100000)"
fill="#000000" stroke="none">
<path d="M1185 4899 c-203 -30 -388 -166 -479 -354 -70 -144 -66 -9 -66 -2087
0 -1555 3 -1882 14 -1924 56 -210 271 -352 479 -315 124 22 143 37 805 616
l622 545 623 -545 c342 -299 643 -556 669 -570 26 -14 80 -33 119 -41 225 -47
452 104 499 331 7 34 9 663 8 1940 l-3 1890 -27 80 c-69 202 -233 358 -443
421 -56 17 -141 18 -1410 20 -742 1 -1377 -2 -1410 -7z m2740 -438 c50 -22
101 -79 115 -128 8 -27 10 -571 8 -1861 l-3 -1824 -620 543 c-664 580 -675
589 -804 610 -40 6 -82 6 -122 0 -129 -21 -140 -30 -804 -610 l-620 -543 -3
1836 c-2 1791 -2 1838 17 1874 11 20 32 49 48 64 64 61 -26 57 1423 57 1260 1
1327 0 1365 -18z"/>
</g>
</svg>
