<?xml version="1.0" standalone="no"?>
<!DOCTYPE svg PUBLIC "-//W3C//DTD SVG 20010904//EN"
 "http://www.w3.org/TR/2001/REC-SVG-20010904/DTD/svg10.dtd">
<svg version="1.0" xmlns="http://www.w3.org/2000/svg"
 width="512.000000pt" height="512.000000pt" viewBox="0 0 512.000000 512.000000"
 preserveAspectRatio="xMidYMid meet">

<g transform="translate(0.000000,512.000000) scale(0.100000,-0.100000)"
fill="#000000" stroke="none">
<path d="M310 2710 l0 -2410 -155 0 -155 0 0 -150 0 -150 2560 0 2560 0 0 150
0 150 -165 0 -165 0 0 1035 0 1035 -355 2 -356 3 152 230 c399 606 433 665
465 824 21 109 15 274 -15 379 -113 393 -495 650 -894 602 -182 -22 -341 -97
-474 -224 -86 -81 -141 -157 -188 -260 -55 -121 -70 -194 -69 -346 1 -116 5
-147 28 -223 14 -49 38 -111 52 -139 14 -28 143 -229 285 -446 142 -217 259
-396 259 -398 0 -2 -214 -4 -475 -4 l-475 0 0 1375 0 1375 -1210 0 -1210 0 0
-2410z m2120 885 l0 -1225 -345 0 -345 0 0 -1035 0 -1035 -565 0 -565 0 0
2260 0 2260 910 0 910 0 0 -1225z m1616 494 c222 -68 376 -296 361 -534 -10
-149 -14 -157 -350 -668 l-177 -269 -116 179 c-326 497 -363 556 -384 615
-123 360 163 732 540 701 36 -3 92 -14 126 -24z m444 -2239 l0 -220 -1222 2
-1223 3 -3 218 -2 217 1225 0 1225 0 0 -220z m0 -670 l0 -150 -1222 2 -1223 3
-3 148 -3 147 1226 0 1225 0 0 -150z m0 -665 l0 -215 -1225 0 -1225 0 0 215 0
215 1225 0 1225 0 0 -215z"/>
<path d="M1000 4235 l0 -265 150 0 150 0 0 265 0 265 -150 0 -150 0 0 -265z"/>
<path d="M1740 4235 l0 -265 150 0 150 0 0 265 0 265 -150 0 -150 0 0 -265z"/>
<path d="M1000 3170 l0 -270 150 0 150 0 -2 268 -3 267 -147 3 -148 3 0 -271z"/>
<path d="M1747 3433 c-4 -3 -7 -125 -7 -270 l0 -263 150 0 150 0 0 270 0 270
-143 0 c-79 0 -147 -3 -150 -7z"/>
<path d="M1000 2100 l0 -271 148 3 147 3 3 268 2 267 -150 0 -150 0 0 -270z"/>
<path d="M1000 1035 l0 -265 150 0 150 0 0 265 0 265 -150 0 -150 0 0 -265z"/>
</g>
</svg>
