<?xml version="1.0" standalone="no"?>
<!DOCTYPE svg PUBLIC "-//W3C//DTD SVG 20010904//EN"
 "http://www.w3.org/TR/2001/REC-SVG-20010904/DTD/svg10.dtd">
<svg version="1.0" xmlns="http://www.w3.org/2000/svg"
 width="512.000000pt" height="512.000000pt" viewBox="0 0 512.000000 512.000000"
 preserveAspectRatio="xMidYMid meet">

<g transform="translate(0.000000,512.000000) scale(0.100000,-0.100000)"
fill="#000000" stroke="none">
<path d="M3505 4786 c-227 -36 -452 -153 -620 -322 -73 -73 -165 -200 -201
-276 -10 -21 -21 -38 -26 -38 -4 0 -93 38 -196 85 -118 53 -201 85 -223 85
-39 0 -1828 -808 -1868 -844 -53 -47 -51 -4 -51 -1156 0 -1152 -2 -1109 51
-1156 40 -37 1829 -844 1869 -844 40 0 1829 807 1869 844 52 47 51 33 51 796
l0 710 48 24 c193 99 382 298 482 508 222 468 94 1028 -311 1351 -243 195
-566 280 -874 233z m365 -329 c207 -57 368 -172 481 -345 88 -134 124 -258
124 -432 0 -226 -75 -408 -231 -564 -310 -310 -812 -312 -1123 -5 -161 159
-236 340 -236 569 0 174 36 297 125 434 118 180 303 306 520 352 80 17 262 12
340 -9z m-1463 -549 l158 -71 0 -151 c0 -85 6 -177 13 -211 34 -156 97 -306
178 -423 l44 -63 -43 -18 c-23 -10 -148 -67 -277 -126 -199 -91 -239 -106
-260 -98 -66 25 -1340 608 -1340 613 0 7 1339 618 1357 619 6 1 82 -31 170
-71z m-1039 -1128 l712 -323 0 -864 c0 -475 -3 -862 -7 -860 -5 2 -329 150
-720 327 l-713 323 0 864 c0 475 3 862 8 860 4 -2 328 -149 720 -327z m1723
-51 c52 -37 213 -107 292 -128 122 -32 241 -44 355 -37 l102 6 0 -593 0 -594
-712 -323 c-392 -178 -716 -325 -720 -327 -5 -2 -8 385 -8 860 l0 864 318 145
c174 80 323 146 330 147 8 1 27 -8 43 -20z"/>
<path d="M3615 4306 c-37 -17 -70 -52 -84 -89 -6 -16 -11 -103 -11 -202 l0
-174 -189 -3 c-207 -3 -216 -6 -265 -72 -29 -39 -29 -133 0 -172 49 -66 58
-69 264 -72 l189 -3 3 -189 c3 -206 6 -215 72 -264 39 -29 133 -29 172 0 66
49 69 58 72 264 l3 189 189 3 c206 3 215 6 264 72 29 39 29 133 0 172 -49 66
-58 69 -264 72 l-189 3 -3 189 c-3 206 -6 215 -70 263 -34 25 -113 32 -153 13z"/>
</g>
</svg>
