<?xml version="1.0" standalone="no"?>
<!DOCTYPE svg PUBLIC "-//W3C//DTD SVG 20010904//EN"
 "http://www.w3.org/TR/2001/REC-SVG-20010904/DTD/svg10.dtd">
<svg version="1.0" xmlns="http://www.w3.org/2000/svg"
 width="512.000000pt" height="512.000000pt" viewBox="0 0 512.000000 512.000000"
 preserveAspectRatio="xMidYMid meet">

<g transform="translate(0.000000,512.000000) scale(0.100000,-0.100000)"
fill="#000000" stroke="none">
<path d="M884 5111 c-47 -12 -133 -62 -160 -94 -14 -17 -37 -53 -52 -81 l-27
-51 0 -2325 0 -2325 27 -51 c40 -76 70 -107 140 -145 l63 -34 1685 0 1685 0
63 34 c70 38 100 69 140 145 l27 51 3 1642 2 1642 -682 3 -683 3 -51 27 c-76
40 -107 70 -145 140 l-34 63 -3 683 -3 682 -982 -1 c-540 -1 -996 -4 -1013 -8z
m2956 -3351 l0 -1120 -320 0 -320 0 0 1120 0 1120 320 0 320 0 0 -1120z m-960
-320 l0 -800 -320 0 -320 0 0 800 0 800 320 0 320 0 0 -800z m-960 -320 l0
-480 -320 0 -320 0 0 480 0 480 320 0 320 0 0 -480z"/>
<path d="M3200 4480 l0 -640 642 0 643 0 -640 640 c-352 352 -641 640 -642
640 -2 0 -3 -288 -3 -640z"/>
</g>
</svg>
