<?xml version="1.0" standalone="no"?>
<!DOCTYPE svg PUBLIC "-//W3C//DTD SVG 20010904//EN"
 "http://www.w3.org/TR/2001/REC-SVG-20010904/DTD/svg10.dtd">
<svg version="1.0" xmlns="http://www.w3.org/2000/svg"
 width="512.000000pt" height="512.000000pt" viewBox="0 0 512.000000 512.000000"
 preserveAspectRatio="xMidYMid meet">

<g transform="translate(0.000000,512.000000) scale(0.100000,-0.100000)"
fill="#000000" stroke="none">
<path d="M230 4160 l0 -160 389 0 388 0 182 -912 c100 -502 185 -923 188 -935
4 -17 -5 -28 -49 -55 -106 -69 -200 -200 -227 -318 -15 -64 -13 -196 3 -256
46 -175 198 -327 377 -378 54 -16 56 -18 85 -79 85 -180 303 -294 499 -260
145 25 282 123 347 249 l33 64 400 0 400 0 33 -64 c65 -126 202 -224 347 -249
194 -33 405 74 494 251 l31 62 65 0 65 0 0 160 0 160 -65 0 -65 0 -31 62 c-58
115 -177 209 -304 243 -207 54 -438 -50 -537 -241 l-33 -64 -400 0 -400 0 -33
64 c-60 115 -177 207 -309 241 -198 52 -418 -43 -523 -223 -34 -58 -36 -59
-60 -47 -35 19 -87 75 -99 108 -6 16 -11 51 -11 78 0 79 40 142 115 182 l40
22 1284 5 1284 5 359 955 c197 525 367 979 378 1008 l20 52 -625 0 -626 0 3
-157 3 -158 388 -3 c213 -1 387 -6 387 -11 0 -6 -151 -412 -492 -1318 l-19
-53 -1107 0 -1107 0 -204 1023 c-113 562 -209 1041 -214 1065 l-9 42 -519 0
-519 0 0 -160z m1848 -2747 c51 -38 67 -70 67 -133 0 -97 -58 -155 -154 -155
-73 0 -121 33 -146 99 -29 76 2 158 75 198 44 24 120 20 158 -9z m1716 -6 c93
-71 79 -214 -25 -268 -162 -82 -311 133 -177 258 54 51 142 55 202 10z"/>
<path d="M2412 3487 l-112 -112 150 -150 150 -150 -150 -150 -150 -150 113
-113 112 -112 150 150 150 150 152 -152 153 -153 112 113 113 112 -148 148
c-81 81 -147 152 -147 157 0 5 66 76 147 157 l148 148 -113 112 -112 113 -152
-153 -153 -152 -150 150 -150 150 -113 -113z"/>
</g>
</svg>
