<?xml version="1.0" standalone="no"?>
<!DOCTYPE svg PUBLIC "-//W3C//DTD SVG 20010904//EN"
 "http://www.w3.org/TR/2001/REC-SVG-20010904/DTD/svg10.dtd">
<svg version="1.0" xmlns="http://www.w3.org/2000/svg"
 width="512.000000pt" height="512.000000pt" viewBox="0 0 512.000000 512.000000"
 preserveAspectRatio="xMidYMid meet">

<g transform="translate(0.000000,512.000000) scale(0.100000,-0.100000)"
fill="#000000" stroke="none">
<path d="M2339 4783 c-64 -31 -2296 -1633 -2315 -1660 -40 -62 -27 -139 33
-194 30 -28 2205 -1582 2263 -1618 74 -45 174 -17 212 59 16 32 18 75 18 457
l0 423 28 -5 c15 -2 68 -7 118 -10 407 -25 858 -172 1174 -383 454 -302 791
-780 932 -1321 36 -140 50 -165 103 -191 52 -25 78 -25 131 1 86 41 97 109 74
464 -30 454 -108 852 -240 1217 -23 62 -81 194 -130 293 -149 303 -304 519
-536 745 -314 307 -653 507 -1099 649 -136 44 -382 98 -490 108 l-64 6 -3 438
c-3 424 -4 438 -24 465 -50 67 -120 89 -185 57z m-87 -792 c3 -348 4 -361 24
-388 38 -51 73 -63 206 -74 284 -23 628 -119 902 -253 602 -294 1022 -793
1245 -1480 39 -120 104 -366 98 -372 -2 -2 -36 42 -77 98 -89 121 -279 321
-405 427 -188 157 -486 327 -729 416 -288 106 -616 166 -982 181 -149 6 -162
6 -200 -14 -80 -41 -78 -31 -84 -440 l-5 -362 -918 656 -919 656 72 52 c40 28
451 322 914 653 462 331 844 602 848 602 4 1 9 -161 10 -358z"/>
</g>
</svg>
