<?xml version="1.0" standalone="no"?>
<!DOCTYPE svg PUBLIC "-//W3C//DTD SVG 20010904//EN"
 "http://www.w3.org/TR/2001/REC-SVG-20010904/DTD/svg10.dtd">
<svg version="1.0" xmlns="http://www.w3.org/2000/svg"
 width="512.000000pt" height="512.000000pt" viewBox="0 0 512.000000 512.000000"
 preserveAspectRatio="xMidYMid meet">

<g transform="translate(0.000000,512.000000) scale(0.100000,-0.100000)"
fill="#000000" stroke="none">
<path d="M1161 4784 c-169 -45 -301 -180 -346 -351 -23 -86 -23 -3660 0 -3746
45 -173 178 -307 350 -352 52 -13 228 -15 1395 -15 1470 0 1390 -3 1511 61 70
38 157 126 193 197 59 116 56 41 56 1568 0 952 -3 1412 -10 1431 -14 37 -1166
1191 -1207 1209 -49 21 -1863 19 -1942 -2z m1719 -652 c0 -383 4 -415 61 -523
38 -70 126 -157 197 -193 103 -52 138 -56 514 -56 l348 0 -2 -1309 c-3 -1305
-3 -1310 -24 -1337 -11 -15 -33 -37 -48 -48 -27 -21 -30 -21 -1366 -21 -1336
0 -1339 0 -1366 21 -15 11 -37 33 -48 48 l-21 27 -3 1792 c-1 986 0 1806 3
1824 7 40 49 91 90 109 24 11 190 13 848 14 l817 0 0 -348z m683 -450 c-239
-3 -261 -1 -304 35 -55 46 -59 69 -59 315 l0 223 285 -285 285 -285 -207 -3z"/>
<path d="M3040 3043 c-14 -2 -39 -8 -55 -14 -20 -6 -277 -256 -782 -761 -643
-644 -753 -758 -758 -788 -3 -19 -5 -121 -3 -227 3 -175 5 -194 24 -219 49
-67 57 -69 267 -72 106 -2 208 0 227 3 30 5 144 115 788 758 504 504 755 762
761 782 30 94 20 206 -27 305 -33 70 -122 159 -192 192 -81 38 -175 54 -250
41z m110 -328 c16 -9 37 -29 46 -47 l16 -31 -86 -86 -86 -86 -47 48 -48 47 85
85 c46 47 86 85 88 85 2 0 16 -7 32 -15z m-380 -430 l45 -45 -480 -480 -480
-480 -47 0 -48 0 0 47 0 48 477 477 c263 263 480 478 483 478 3 0 26 -20 50
-45z"/>
<path d="M2495 1266 c-67 -29 -105 -106 -91 -181 9 -47 59 -102 104 -115 25
-8 209 -10 554 -8 504 3 517 4 544 24 53 39 69 71 69 134 0 63 -16 95 -69 134
-27 21 -40 21 -554 23 -423 2 -533 0 -557 -11z"/>
</g>
</svg>
