<?xml version="1.0" standalone="no"?>
<!DOCTYPE svg PUBLIC "-//W3C//DTD SVG 20010904//EN"
 "http://www.w3.org/TR/2001/REC-SVG-20010904/DTD/svg10.dtd">
<svg version="1.0" xmlns="http://www.w3.org/2000/svg"
 width="512.000000pt" height="512.000000pt" viewBox="0 0 512.000000 512.000000"
 preserveAspectRatio="xMidYMid meet">

<g transform="translate(0.000000,512.000000) scale(0.100000,-0.100000)"
fill="#000000" stroke="none">
<path d="M235 5108 c-100 -26 -198 -128 -223 -230 -17 -67 -17 -4569 0 -4636
25 -106 124 -205 230 -230 67 -17 4569 -17 4636 0 106 25 205 124 230 230 9
34 12 472 12 1641 l0 1594 -24 95 c-29 114 -89 243 -150 324 -24 32 -269 282
-543 555 -365 363 -514 506 -559 532 -86 52 -190 94 -286 117 -81 19 -119 20
-1683 19 -1068 -1 -1613 -5 -1640 -11z m617 -1145 l3 -728 27 -57 c35 -75 104
-141 174 -168 55 -20 64 -20 1092 -18 l1037 3 45 23 c60 31 122 93 151 150
l24 47 3 738 2 737 26 0 c38 0 153 -48 204 -86 25 -18 255 -243 511 -501 448
-451 466 -471 500 -543 l34 -75 3 -1527 2 -1528 -209 0 -210 0 -3 728 -3 727
-27 57 c-35 75 -104 141 -174 167 -54 21 -65 21 -1504 21 -1439 0 -1450 0
-1504 -21 -70 -26 -139 -92 -174 -167 l-27 -57 -3 -727 -3 -728 -209 0 -210 0
0 2130 0 2130 210 0 209 0 3 -727z m2098 699 c19 -19 30 -44 35 -73 3 -24 5
-284 3 -576 l-3 -533 -33 -32 -32 -33 -360 0 -360 0 -32 33 -33 32 -3 533 c-2
292 0 552 3 576 5 29 16 54 35 73 l28 28 362 0 362 0 28 -28z m890 -3592 l0
-640 -1280 0 -1280 0 0 640 0 640 1280 0 1280 0 0 -640z"/>
</g>
</svg>
