<?xml version="1.0" encoding="utf-8"?>
<!-- Generator: Adobe Illustrator 28.0.0, SVG Export Plug-In . SVG Version: 6.00 Build 0)  -->
<svg version="1.1" id="Layer_1" xmlns="http://www.w3.org/2000/svg" xmlns:xlink="http://www.w3.org/1999/xlink" x="0px" y="0px"
	 viewBox="0 0 24 24" style="enable-background:new 0 0 24 24;" xml:space="preserve">
<path d="M7.5,22c-1,0-1.8-0.3-2.5-1c-0.7-0.7-1-1.5-1-2.5v-13c0-1,0.3-1.8,1-2.5s1.5-1,2.5-1H20v15c-0.4,0-0.8,0.1-1.1,0.4
	s-0.4,0.6-0.4,1.1c0,0.4,0.1,0.8,0.4,1.1c0.3,0.3,0.6,0.4,1.1,0.4v2H7.5z M7.5,20h9.3c-0.1-0.2-0.2-0.5-0.2-0.7
	c-0.1-0.2-0.1-0.5-0.1-0.8c0-0.3,0-0.5,0.1-0.8c0-0.2,0.1-0.5,0.2-0.7H7.5c-0.4,0-0.8,0.1-1.1,0.4S6,18.1,6,18.5
	c0,0.4,0.1,0.8,0.4,1.1C6.7,19.9,7.1,20,7.5,20z M6,15.3c0.2-0.1,0.5-0.2,0.7-0.2S7.2,15,7.5,15H18V4H7.5C7.1,4,6.7,4.1,6.4,4.4
	C6.1,4.7,6,5.1,6,5.5V15.3z M8.7,13h1.2l0.6-1.8h2.8L14,13h1.2l-2.6-7h-1.2L8.7,13z M10.9,10.2l1-2.9H12l1,2.9H10.9z M6,15.3"/>
</svg>
