<?xml version="1.0" standalone="no"?>
<!DOCTYPE svg PUBLIC "-//W3C//DTD SVG 20010904//EN"
 "http://www.w3.org/TR/2001/REC-SVG-20010904/DTD/svg10.dtd">
<svg version="1.0" xmlns="http://www.w3.org/2000/svg"
 width="512.000000pt" height="512.000000pt" viewBox="0 0 512.000000 512.000000"
 preserveAspectRatio="xMidYMid meet">

<g transform="translate(0.000000,512.000000) scale(0.100000,-0.100000)"
fill="#000000" stroke="none">
<path d="M4570 4264 c-39 -14 -211 -182 -1247 -1217 l-1203 -1202 -752 752
c-829 828 -793 796 -918 797 -102 0 -146 -25 -282 -162 -142 -143 -163 -179
-163 -282 0 -62 5 -84 27 -125 20 -37 269 -292 975 -996 1063 -1061 989 -996
1128 -987 45 3 86 13 115 27 33 17 426 404 1436 1414 1336 1337 1393 1394
1413 1450 27 73 27 131 -1 204 -17 48 -40 77 -137 174 -65 65 -136 126 -161
139 -58 30 -166 36 -230 14z"/>
</g>
</svg>
