<?xml version="1.0" standalone="no"?>
<!DOCTYPE svg PUBLIC "-//W3C//DTD SVG 20010904//EN"
 "http://www.w3.org/TR/2001/REC-SVG-20010904/DTD/svg10.dtd">
<svg version="1.0" xmlns="http://www.w3.org/2000/svg"
 width="512.000000pt" height="512.000000pt" viewBox="0 0 512.000000 512.000000"
 preserveAspectRatio="xMidYMid meet">

<g transform="translate(0.000000,512.000000) scale(0.100000,-0.100000)"
fill="#000000" stroke="none">
<path d="M1085 5104 c-44 -23 -1043 -1022 -1066 -1066 -19 -36 -19 -77 -19
-1832 0 -1300 3 -1810 11 -1848 37 -172 175 -310 347 -347 75 -16 3108 -16
3184 0 128 27 241 113 301 226 43 83 57 148 57 261 l0 86 257 -255 c283 -281
306 -298 442 -321 142 -24 282 21 387 126 105 105 150 245 126 387 -25 147
-15 134 -578 699 l-513 515 24 78 c64 200 72 445 22 639 -26 99 -83 231 -137
320 l-30 48 0 945 c0 666 -3 960 -11 997 -37 172 -175 310 -347 347 -38 8
-392 11 -1240 11 -1056 -1 -1190 -3 -1217 -16z m2435 -304 c26 -13 47 -34 60
-60 20 -39 20 -54 18 -829 l-3 -789 -65 39 c-85 51 -191 95 -309 127 l-96 27
-1202 3 c-1194 3 -1203 2 -1243 -18 -26 -13 -47 -34 -60 -60 -19 -37 -20 -58
-20 -470 0 -412 1 -433 20 -470 13 -26 34 -47 60 -60 38 -19 58 -20 577 -20
l539 0 11 -133 c7 -73 15 -140 18 -150 7 -16 -25 -17 -549 -17 -538 0 -558 -1
-596 -20 -45 -23 -80 -80 -80 -130 0 -50 35 -107 80 -130 38 -19 58 -20 649
-20 l609 0 58 -87 c71 -107 213 -251 314 -317 193 -127 373 -185 600 -193 159
-6 256 7 399 52 l76 25 108 -108 107 -107 0 -233 c0 -214 -2 -236 -20 -272
-13 -26 -34 -47 -60 -60 -39 -20 -56 -20 -1571 -20 l-1531 0 -40 22 c-24 14
-48 38 -59 60 -18 36 -19 88 -19 1738 l0 1700 440 0 c422 0 442 1 480 20 26
13 47 34 60 60 19 38 20 58 20 480 l0 440 1090 0 c1073 0 1091 0 1130 -20z
m-2520 -440 l0 -240 -242 0 -243 0 240 240 c132 132 241 240 242 240 2 0 3
-108 3 -240z m1103 -1424 c-86 -92 -166 -217 -215 -338 l-32 -78 -478 0 -478
0 0 250 0 250 641 0 641 0 -79 -84z m954 74 c162 -22 321 -91 447 -195 74 -62
162 -178 211 -278 68 -143 80 -197 79 -377 0 -147 -2 -160 -32 -250 -45 -135
-109 -237 -211 -341 -102 -102 -203 -165 -341 -211 -90 -30 -103 -32 -250 -32
-180 -1 -234 11 -377 79 -301 146 -478 432 -476 770 1 146 23 241 87 370 139
281 425 463 748 474 20 0 72 -4 115 -9z m1275 -2007 c251 -252 463 -472 472
-490 34 -69 5 -158 -64 -193 -55 -28 -98 -25 -151 9 -24 16 -244 229 -489 474
l-444 446 97 96 c53 53 97 101 97 106 0 5 6 9 13 9 6 0 218 -206 469 -457z"/>
<path d="M1678 4499 c-43 -22 -78 -81 -78 -129 0 -50 35 -107 80 -130 38 -20
57 -20 770 -20 713 0 732 0 770 20 45 23 80 80 80 130 0 50 -35 107 -80 130
-38 20 -57 20 -772 20 -710 -1 -734 -2 -770 -21z"/>
<path d="M1678 3899 c-43 -22 -78 -81 -78 -129 0 -50 35 -107 80 -130 38 -20
57 -20 770 -20 713 0 732 0 770 20 45 23 80 80 80 130 0 50 -35 107 -80 130
-38 20 -57 20 -772 20 -710 -1 -734 -2 -770 -21z"/>
<path d="M678 1299 c-43 -22 -78 -81 -78 -129 0 -50 35 -107 80 -130 38 -19
58 -20 670 -20 612 0 632 1 670 20 45 23 80 80 80 130 0 50 -35 107 -80 130
-38 19 -57 20 -672 20 -610 -1 -634 -2 -670 -21z"/>
</g>
</svg>
