<?xml version="1.0" standalone="no"?>
<!DOCTYPE svg PUBLIC "-//W3C//DTD SVG 20010904//EN"
 "http://www.w3.org/TR/2001/REC-SVG-20010904/DTD/svg10.dtd">
<svg version="1.0" xmlns="http://www.w3.org/2000/svg"
 width="512.000000pt" height="512.000000pt" viewBox="0 0 512.000000 512.000000"
 preserveAspectRatio="xMidYMid meet">

<g transform="translate(0.000000,512.000000) scale(0.100000,-0.100000)"
fill="#000000" stroke="none">
<path d="M1580 5109 c-71 -14 -171 -68 -226 -123 -57 -58 -109 -156 -124 -235
-6 -34 -10 -406 -10 -993 l0 -939 -45 -77 c-161 -275 -198 -625 -99 -930 l25
-75 -514 -516 c-473 -476 -516 -521 -541 -579 -58 -133 -57 -260 3 -388 80
-171 281 -277 467 -246 139 23 173 47 451 325 l253 251 0 -81 c0 -107 14 -175
50 -250 39 -78 99 -143 173 -187 117 -69 29 -66 1725 -66 983 0 1549 4 1583
10 79 15 177 67 235 124 57 58 109 156 124 235 14 76 14 3610 0 3648 -14 37
-1046 1071 -1087 1089 -27 12 -221 14 -1215 13 -651 -1 -1203 -5 -1228 -10z
m2242 -738 c3 -436 4 -450 24 -477 11 -15 33 -37 48 -48 27 -20 41 -21 477
-24 l449 -3 0 -1702 c0 -1601 -1 -1704 -18 -1736 -9 -19 -30 -44 -45 -55 -28
-21 -28 -21 -1575 -24 -1458 -2 -1549 -1 -1581 15 -19 10 -44 31 -55 46 -20
27 -21 44 -24 275 l-3 247 109 108 108 108 75 -24 c169 -56 361 -70 539 -42
104 17 240 60 322 101 173 86 349 243 448 397 l55 85 622 4 c610 3 622 3 649
24 50 37 69 72 69 124 0 52 -19 87 -69 124 -27 21 -40 21 -593 24 l-565 2 6
28 c4 15 9 82 13 149 l6 123 553 2 c540 3 553 3 580 24 15 11 37 33 48 48 20
27 21 39 21 476 0 437 -1 449 -21 476 -11 15 -33 37 -48 48 -27 21 -34 21
-1164 24 -1207 3 -1262 1 -1421 -44 -87 -25 -249 -97 -301 -134 -16 -11 -31
-20 -34 -20 -4 0 -5 362 -4 804 3 796 3 805 24 833 11 15 36 36 55 45 32 17
106 18 1126 18 l1092 0 3 -449z m543 -9 l240 -242 -243 0 -242 0 0 247 c0 135
1 244 3 242 1 -3 110 -114 242 -247z m-1980 -1372 c386 -103 655 -474 632
-870 -21 -350 -247 -644 -587 -762 -93 -32 -99 -33 -260 -33 -145 0 -174 3
-240 23 -281 89 -493 301 -582 582 -20 66 -23 95 -23 240 0 161 1 167 33 260
106 304 345 514 657 576 96 19 267 11 370 -16z m1835 -220 l0 -250 -480 2
-481 3 -34 84 c-47 115 -126 237 -213 332 l-74 79 641 0 641 0 0 -250z m-3224
-1987 c-414 -415 -476 -472 -509 -478 -118 -22 -204 64 -182 182 6 33 64 95
476 509 l470 471 108 -106 107 -106 -470 -472z"/>
<path d="M1915 4506 c-69 -30 -108 -112 -85 -180 14 -44 69 -93 112 -101 18
-3 358 -5 755 -3 711 3 722 3 749 24 50 37 69 72 69 124 0 52 -19 87 -69 124
-27 21 -37 21 -764 23 -597 2 -743 0 -767 -11z"/>
<path d="M1915 3906 c-69 -30 -108 -112 -85 -180 14 -44 69 -93 112 -101 18
-3 358 -5 755 -3 711 3 722 3 749 24 50 37 69 72 69 124 0 52 -19 87 -69 124
-27 21 -37 21 -764 23 -597 2 -743 0 -767 -11z"/>
<path d="M3115 1306 c-69 -30 -108 -112 -85 -180 14 -44 69 -93 112 -101 18
-3 313 -5 655 -3 610 3 622 3 649 24 50 37 69 72 69 124 0 52 -19 87 -69 124
-27 21 -38 21 -664 23 -514 2 -643 0 -667 -11z"/>
</g>
</svg>
