<?xml version="1.0" standalone="no"?>
<!DOCTYPE svg PUBLIC "-//W3C//DTD SVG 20010904//EN"
 "http://www.w3.org/TR/2001/REC-SVG-20010904/DTD/svg10.dtd">
<svg version="1.0" xmlns="http://www.w3.org/2000/svg"
 width="512.000000pt" height="512.000000pt" viewBox="0 0 512.000000 512.000000"
 preserveAspectRatio="xMidYMid meet">

<g transform="translate(0.000000,512.000000) scale(0.100000,-0.100000)"
fill="#000000" stroke="none">
<path d="M361 4649 c-172 -34 -318 -182 -351 -358 -6 -35 -10 -585 -10 -1583
0 -1512 0 -1529 20 -1568 13 -26 34 -47 60 -60 36 -18 58 -20 285 -20 l245 0
0 -27 c0 -16 7 -59 15 -98 57 -270 309 -475 585 -475 276 0 528 205 585 475 8
39 15 82 15 98 l0 27 755 0 755 0 0 -27 c0 -16 7 -59 15 -98 57 -270 309 -475
585 -475 218 0 439 137 534 330 35 72 65 184 66 243 l0 27 89 0 c48 0 112 5
142 10 180 34 325 179 359 359 6 32 10 250 10 537 l0 483 -309 618 c-170 340
-319 629 -331 642 -49 51 -50 51 -625 51 l-535 0 0 239 c0 131 -5 262 -10 292
-34 180 -179 325 -359 359 -67 12 -2525 12 -2590 -1z m2579 -309 c26 -13 47
-34 60 -60 20 -39 20 -56 20 -1480 l0 -1440 -645 0 -644 0 -30 43 c-104 151
-305 257 -491 257 -186 0 -387 -106 -491 -257 l-30 -43 -194 0 -195 0 0 1440
c0 1424 0 1441 20 1480 12 24 35 47 58 59 36 20 62 20 1280 21 1226 0 1243 0
1282 -20z m1408 -1025 c39 -80 72 -147 72 -150 0 -3 -153 -5 -340 -5 -322 0
-343 -1 -380 -20 -26 -13 -47 -34 -60 -60 -19 -37 -20 -58 -20 -370 0 -312 1
-333 20 -370 13 -26 34 -47 60 -60 38 -19 58 -20 580 -20 l540 0 0 -150 0
-150 -90 0 c-112 0 -159 -20 -190 -80 -25 -50 -25 -90 0 -140 31 -60 78 -80
190 -80 l90 0 0 -90 c0 -112 -20 -159 -80 -190 -33 -17 -59 -20 -169 -20
l-130 0 -30 43 c-104 151 -305 257 -491 257 -186 0 -387 -106 -491 -257 -27
-38 -34 -43 -69 -43 l-40 0 0 1050 0 1050 478 0 477 0 73 -145z m300 -600 c39
-80 72 -147 72 -150 0 -3 -180 -5 -400 -5 l-400 0 0 150 0 150 328 0 327 0 73
-145z m-3316 -1383 c59 -26 124 -91 151 -151 30 -64 30 -178 0 -242 -27 -60
-92 -125 -152 -152 -64 -30 -178 -30 -242 0 -129 59 -202 206 -169 342 43 180
242 278 412 203z m2710 0 c59 -26 124 -91 151 -151 30 -64 30 -178 0 -242 -27
-60 -92 -125 -152 -152 -64 -30 -178 -30 -242 0 -129 59 -202 206 -169 342 43
180 242 278 412 203z"/>
<path d="M1579 4031 c-58 -38 -932 -916 -953 -958 -34 -68 -6 -153 64 -192 64
-36 128 -22 198 42 l22 20 0 -432 c0 -413 1 -434 20 -471 13 -26 34 -47 60
-60 38 -19 58 -20 670 -20 612 0 632 1 670 20 26 13 47 34 60 60 19 37 20 58
20 471 l0 432 23 -20 c40 -37 91 -63 126 -63 75 0 151 77 151 152 0 21 -11 52
-29 79 -38 58 -916 932 -958 953 -48 24 -93 20 -144 -13z m308 -563 l223 -223
0 -492 0 -493 -150 0 -150 0 0 240 c0 222 -2 244 -20 280 -23 45 -80 80 -130
80 -50 0 -107 -35 -130 -80 -18 -36 -20 -58 -20 -280 l0 -240 -150 0 -150 0 0
492 0 493 222 222 c123 123 225 223 228 223 3 0 105 -100 227 -222z"/>
<path d="M1588 3439 c-43 -22 -78 -81 -78 -129 0 -50 35 -107 80 -130 21 -11
53 -20 70 -20 76 0 150 74 150 150 0 50 -35 107 -80 130 -49 25 -94 25 -142
-1z"/>
</g>
</svg>
