<?xml version="1.0" standalone="no"?>
<!DOCTYPE svg PUBLIC "-//W3C//DTD SVG 20010904//EN"
 "http://www.w3.org/TR/2001/REC-SVG-20010904/DTD/svg10.dtd">
<svg version="1.0" xmlns="http://www.w3.org/2000/svg"
 width="512.000000pt" height="512.000000pt" viewBox="0 0 512.000000 512.000000"
 preserveAspectRatio="xMidYMid meet">

<g transform="translate(0.000000,512.000000) scale(0.100000,-0.100000)"
fill="#000000" stroke="none">
<path d="M2785 5105 c-184 -28 -362 -99 -521 -205 -101 -68 -256 -223 -324
-324 -251 -375 -289 -837 -101 -1232 68 -143 140 -245 250 -355 326 -325 781
-443 1231 -319 104 29 300 127 395 198 475 355 638 999 386 1528 -92 192 -223
354 -386 476 -95 71 -291 169 -395 198 -175 48 -371 61 -535 35z m418 -314
c336 -88 596 -349 689 -691 33 -122 33 -338 0 -460 -93 -342 -349 -599 -689
-692 -117 -32 -345 -32 -463 0 -342 93 -599 348 -692 689 -31 112 -31 354 0
466 100 364 387 631 757 703 98 19 297 12 398 -15z"/>
<path d="M2900 4643 c-27 -24 -33 -38 -38 -81 -4 -51 -5 -52 -57 -76 -113 -51
-186 -163 -193 -293 -8 -135 45 -224 176 -298 l72 -40 0 -212 0 -212 -37 13
c-21 8 -61 26 -90 41 -46 24 -55 26 -87 15 -46 -15 -66 -44 -66 -95 0 -32 6
-47 28 -67 52 -48 125 -81 223 -102 24 -5 27 -11 31 -58 4 -42 11 -57 37 -80
37 -33 73 -36 118 -8 34 20 41 37 45 109 3 43 4 44 56 63 75 28 163 113 204
196 31 62 33 73 33 172 0 96 -2 110 -28 159 -41 76 -103 133 -192 171 l-75 34
0 158 c0 87 3 158 8 158 4 0 27 -14 51 -30 55 -38 91 -38 132 -2 44 40 46 98
4 142 -38 40 -98 75 -152 90 -42 11 -43 11 -43 55 0 59 -30 94 -86 102 -36 4
-46 1 -74 -24z m-42 -511 l-3 -47 -22 23 c-31 30 -31 95 0 142 l22 35 3 -53
c2 -29 2 -74 0 -100z m266 -402 c32 -36 36 -46 36 -96 0 -31 -7 -69 -16 -87
-18 -35 -63 -87 -76 -87 -4 0 -8 70 -8 155 0 176 3 182 64 115z"/>
<path d="M4555 2387 c-68 -18 -140 -55 -189 -98 -23 -21 -172 -207 -331 -415
l-289 -377 -13 78 c-35 206 -192 372 -391 414 -35 7 -232 11 -572 11 l-520 0
-62 46 c-281 207 -665 251 -996 115 l-72 -30 0 25 c0 44 -37 102 -80 124 -38
19 -58 20 -480 20 -422 0 -442 -1 -480 -20 -26 -13 -47 -34 -60 -60 -20 -39
-20 -57 -20 -1070 0 -1013 0 -1031 20 -1070 13 -26 34 -47 60 -60 38 -19 58
-20 480 -20 422 0 442 1 480 20 60 31 80 78 80 190 l0 90 1268 0 c1393 0 1362
-1 1538 61 105 37 149 58 229 112 90 60 162 124 222 196 79 96 691 1052 716
1119 31 82 30 234 -2 314 -49 126 -152 225 -279 270 -71 25 -191 32 -257 15z
m203 -323 c43 -33 66 -86 59 -140 -6 -59 -602 -987 -701 -1091 -96 -103 -194
-161 -351 -211 -45 -15 -192 -17 -1348 -19 l-1297 -4 0 588 0 588 82 52 c116
72 216 104 349 111 78 3 127 0 185 -12 98 -21 243 -91 309 -149 88 -77 38 -71
680 -77 l580 -5 38 -24 c21 -13 50 -42 65 -64 23 -34 27 -52 27 -107 0 -55 -4
-73 -27 -107 -15 -22 -44 -51 -65 -64 l-38 -24 -590 -5 c-540 -5 -593 -7 -622
-23 -38 -20 -73 -82 -73 -127 0 -50 35 -107 81 -130 39 -20 50 -21 722 -17
762 3 722 0 882 77 146 70 188 114 536 570 348 454 350 456 438 445 26 -3 59
-16 79 -31z m-3938 -914 l0 -850 -260 0 -260 0 0 850 0 850 260 0 260 0 0
-850z"/>
</g>
</svg>
