<?xml version="1.0" standalone="no"?>
<!DOCTYPE svg PUBLIC "-//W3C//DTD SVG 20010904//EN"
 "http://www.w3.org/TR/2001/REC-SVG-20010904/DTD/svg10.dtd">
<svg version="1.0" xmlns="http://www.w3.org/2000/svg"
 width="512.000000pt" height="512.000000pt" viewBox="0 0 512.000000 512.000000"
 preserveAspectRatio="xMidYMid meet">

<g transform="translate(0.000000,512.000000) scale(0.100000,-0.100000)"
fill="#000000" stroke="none">
<path d="M1757 5022 c-15 -16 -17 -60 -19 -368 l-3 -349 -105 -5 c-88 -4 -105
-8 -108 -22 -4 -21 402 -502 427 -506 17 -3 69 56 363 405 49 59 75 98 72 108
-5 12 -26 15 -110 15 l-104 0 0 350 c0 337 -1 351 -20 370 -19 19 -33 20 -198
20 -160 0 -181 -2 -195 -18z"/>
<path d="M2864 5026 c-18 -14 -19 -31 -22 -370 l-3 -356 -105 0 c-105 0 -105
0 -102 -24 4 -30 407 -506 428 -506 22 0 430 483 430 509 0 20 -5 21 -105 21
l-104 0 -3 356 c-3 339 -4 356 -22 370 -29 20 -363 20 -392 0z"/>
<path d="M281 4258 c-107 -57 -108 -199 -1 -255 40 -22 55 -23 230 -23 l188 0
12 -47 c6 -27 130 -538 275 -1138 145 -599 266 -1102 270 -1116 6 -24 1 -28
-62 -59 -90 -45 -197 -151 -241 -242 -80 -164 -80 -320 -1 -486 73 -151 217
-264 374 -293 33 -7 65 -13 72 -15 6 -1 15 -29 18 -61 26 -219 169 -384 373
-429 283 -63 558 136 580 419 l5 67 406 0 407 0 10 -80 c53 -389 520 -555 803
-285 199 189 200 500 2 688 -183 174 -466 181 -646 16 l-42 -39 -527 0 -526 0
-57 47 c-189 153 -448 150 -628 -9 -41 -36 -47 -38 -110 -38 -90 0 -137 16
-190 62 -59 52 -85 109 -85 186 0 107 47 184 138 229 l57 28 1225 5 1225 5 56
23 c159 64 271 177 330 333 l20 51 -43 -8 c-24 -4 -96 -7 -160 -7 l-117 1 -39
-38 c-58 -55 -113 -70 -254 -70 l-118 0 0 129 0 130 -32 22 c-18 13 -54 40
-80 62 l-48 39 0 -191 0 -191 -255 0 -255 0 0 195 0 195 251 0 251 0 -52 57
c-29 31 -59 67 -67 80 -15 23 -18 23 -199 23 l-184 0 0 155 0 155 110 0 c61 0
110 2 110 5 0 4 -16 85 -26 133 -4 21 -9 22 -99 22 l-95 0 0 190 0 189 111 3
111 3 27 75 c14 41 43 105 63 142 l38 68 -1022 2 -1022 3 -81 335 c-45 184
-87 353 -95 375 -19 56 -112 147 -175 170 -41 15 -87 19 -260 22 -205 4 -211
4 -254 -19z m1719 -1368 l0 -190 -345 0 -344 0 -10 38 c-15 56 -81 329 -81
336 0 3 176 6 390 6 l390 0 0 -190z m680 0 l0 -190 -260 0 -260 0 0 190 0 190
260 0 260 0 0 -190z m-680 -505 l0 -155 -289 0 -289 0 -36 150 c-20 83 -36
153 -36 155 0 3 146 5 325 5 l325 0 0 -155z m680 0 l0 -155 -260 0 -260 0 0
155 0 155 260 0 260 0 0 -155z m-680 -510 l0 -195 -223 0 -223 0 -43 183 c-24
100 -46 188 -48 195 -4 9 53 12 266 12 l271 0 0 -195z m680 0 l0 -195 -260 0
-260 0 0 195 0 195 260 0 260 0 0 -195z m-700 -1140 c61 -32 109 -108 110
-173 0 -66 -50 -146 -113 -179 -16 -8 -54 -14 -84 -14 -155 0 -246 170 -160
300 53 79 163 109 247 66z m1745 11 c65 -20 112 -68 131 -133 14 -48 14 -58 0
-107 -62 -212 -376 -168 -376 52 0 92 51 162 137 189 50 15 52 15 108 -1z"/>
<path d="M3925 3670 c-281 -45 -521 -221 -645 -475 -74 -151 -85 -201 -84
-390 0 -148 2 -166 28 -245 94 -284 289 -482 566 -574 251 -83 546 -37 763
118 328 233 451 649 306 1027 -96 250 -325 453 -585 519 -91 24 -262 33 -349
20z m180 -260 c9 -10 20 -39 22 -63 5 -41 7 -44 52 -60 96 -34 186 -126 198
-202 4 -27 0 -38 -20 -59 -44 -44 -87 -28 -129 45 -59 105 -223 126 -310 39
-33 -32 -38 -44 -38 -82 0 -82 41 -111 212 -148 210 -46 308 -138 308 -290 0
-80 -22 -132 -78 -182 -49 -44 -84 -63 -144 -78 -45 -12 -46 -13 -51 -58 -9
-78 -72 -108 -122 -57 -18 17 -25 35 -25 64 0 38 -2 41 -37 50 -93 26 -169 86
-210 165 -33 65 -34 113 -4 137 49 40 88 21 129 -61 23 -45 36 -59 81 -82 128
-67 321 -9 321 96 0 78 -74 132 -219 161 -208 40 -304 129 -305 280 0 61 4 78
30 125 36 64 94 112 164 137 48 17 50 20 50 54 0 75 79 119 125 69z"/>
</g>
</svg>
