<?xml version="1.0" standalone="no"?>
<!DOCTYPE svg PUBLIC "-//W3C//DTD SVG 20010904//EN"
 "http://www.w3.org/TR/2001/REC-SVG-20010904/DTD/svg10.dtd">
<svg version="1.0" xmlns="http://www.w3.org/2000/svg"
 width="512.000000pt" height="512.000000pt" viewBox="0 0 512.000000 512.000000"
 preserveAspectRatio="xMidYMid meet">

<g transform="translate(0.000000,512.000000) scale(0.100000,-0.100000)"
fill="#000000" stroke="none">
<path d="M590 5080 c-185 -50 -326 -162 -414 -330 -105 -200 -93 -441 31 -640
23 -35 292 -313 756 -777 l722 -723 -786 -787 -787 -788 -41 -85 c-68 -140
-85 -265 -56 -415 67 -353 431 -584 779 -495 180 46 127 0 1004 874 l792 791
743 -741 c408 -408 756 -751 774 -763 112 -76 235 -113 378 -113 180 1 330 67
457 201 198 208 232 514 86 766 -34 59 -156 186 -784 815 l-744 745 704 705
704 705 40 85 c53 112 66 174 65 295 -4 378 -332 665 -711 624 -91 -10 -158
-31 -242 -76 -55 -30 -168 -138 -765 -734 l-700 -699 -730 728 c-532 530 -745
736 -787 760 -146 86 -334 113 -488 72z"/>
</g>
</svg>
