<?xml version="1.0" standalone="no"?>
<!DOCTYPE svg PUBLIC "-//W3C//DTD SVG 20010904//EN"
 "http://www.w3.org/TR/2001/REC-SVG-20010904/DTD/svg10.dtd">
<svg version="1.0" xmlns="http://www.w3.org/2000/svg"
 width="512.000000pt" height="512.000000pt" viewBox="0 0 512.000000 512.000000"
 preserveAspectRatio="xMidYMid meet">

<g transform="translate(0.000000,512.000000) scale(0.100000,-0.100000)"
fill="#000000" stroke="none">
<path d="M2205 5096 c-59 -27 -77 -46 -104 -106 -20 -44 -21 -62 -21 -852 0
-445 -3 -808 -6 -808 -3 0 -24 15 -47 34 -61 50 -187 122 -281 161 -450 186
-971 88 -1325 -250 -225 -214 -351 -477 -383 -794 -48 -498 227 -987 684
-1216 60 -30 139 -63 178 -75 l70 -21 0 -463 c0 -519 0 -519 71 -600 144 -164
418 -128 510 67 l29 62 0 466 0 466 93 33 c115 40 229 99 324 167 41 29 76 53
79 53 2 0 4 -46 4 -102 0 -57 5 -120 11 -141 13 -49 63 -105 114 -128 38 -18
105 -19 1380 -19 1275 0 1342 1 1380 19 51 23 101 79 114 128 7 26 11 475 11
1383 l0 1345 -432 608 -432 607 -986 0 -985 0 -50 -24z m1875 -693 c0 -557 -1
-547 53 -587 27 -20 41 -21 393 -24 l364 -3 0 -1279 0 -1280 -1305 0 -1305 0
0 208 0 208 29 40 c73 99 147 277 182 434 31 137 33 362 6 490 -35 162 -96
313 -176 438 l-41 63 0 898 c0 494 3 901 7 904 3 4 408 7 900 7 l893 0 0 -517z
m447 -53 c142 -201 262 -371 266 -377 7 -10 -49 -13 -267 -13 l-276 0 0 387
c0 218 4 383 9 378 4 -6 125 -174 268 -375z m-3137 -940 c242 -30 452 -131
620 -300 83 -82 173 -211 215 -305 225 -510 18 -1101 -476 -1355 -179 -92
-376 -130 -572 -110 -139 14 -231 40 -362 105 -445 217 -676 729 -544 1206
136 492 620 820 1119 759z m-10 -2707 l0 -431 -26 -31 c-43 -51 -115 -51 -163
0 -21 22 -21 30 -21 458 l0 436 105 0 105 0 0 -432z"/>
<path d="M2735 3893 c-54 -14 -83 -72 -65 -128 21 -63 30 -65 325 -65 295 0
304 2 325 65 14 42 5 77 -27 107 -24 23 -27 23 -281 25 -141 1 -266 -1 -277
-4z"/>
<path d="M2730 3487 c-21 -7 -42 -25 -53 -45 -17 -29 -18 -39 -8 -73 24 -79
-31 -74 846 -77 429 -2 800 0 824 3 94 14 132 101 72 167 l-29 33 -809 2
c-609 2 -816 -1 -843 -10z"/>
<path d="M2698 3067 c-55 -51 -40 -135 28 -163 51 -22 1638 -16 1671 5 51 34
58 108 14 152 l-29 29 -830 0 -829 0 -25 -23z"/>
<path d="M2713 2678 c-30 -15 -56 -72 -48 -107 3 -16 17 -39 31 -52 l26 -24
801 -3 c441 -2 817 0 836 3 79 15 109 109 52 166 l-29 29 -824 -1 c-559 0
-830 -4 -845 -11z"/>
<path d="M2725 2281 c-37 -16 -60 -51 -60 -93 0 -33 6 -45 33 -69 l32 -29 425
0 425 0 31 28 c43 38 45 101 5 140 l-26 27 -423 2 c-232 1 -431 -2 -442 -6z"/>
<path d="M3834 2280 c-82 -33 -66 -169 22 -186 112 -21 172 122 74 179 -30 18
-63 21 -96 7z"/>
<path d="M1190 3264 c-238 -29 -442 -137 -593 -313 -202 -235 -264 -552 -166
-856 83 -261 303 -481 564 -564 506 -163 1029 133 1150 651 23 97 23 288 1
383 -82 346 -337 602 -676 679 -69 16 -222 27 -280 20z m280 -228 c212 -61
397 -241 462 -449 58 -184 35 -394 -59 -557 -47 -80 -168 -204 -245 -248 -213
-125 -494 -125 -706 0 -73 42 -198 167 -240 240 -74 125 -108 286 -92 428 19
164 82 293 199 411 183 183 431 247 681 175z"/>
<path d="M1086 2830 c-106 -44 -204 -137 -252 -237 -33 -70 -59 -198 -50 -246
15 -79 103 -114 161 -64 23 19 29 37 40 110 20 133 74 207 187 256 55 23 78
53 78 103 0 80 -73 115 -164 78z"/>
<path d="M973 2193 c-35 -7 -73 -59 -73 -100 0 -77 100 -122 163 -73 80 63 12
192 -90 173z"/>
</g>
</svg>
