<?xml version="1.0" standalone="no"?>
<!DOCTYPE svg PUBLIC "-//W3C//DTD SVG 20010904//EN"
 "http://www.w3.org/TR/2001/REC-SVG-20010904/DTD/svg10.dtd">
<svg version="1.0" xmlns="http://www.w3.org/2000/svg"
 width="512.000000pt" height="512.000000pt" viewBox="0 0 512.000000 512.000000"
 preserveAspectRatio="xMidYMid meet">

<g transform="translate(0.000000,512.000000) scale(0.100000,-0.100000)"
fill="#000000" stroke="none">
<path d="M3688 5104 c-167 -26 -350 -101 -498 -205 -144 -101 -293 -275 -373
-434 -138 -277 -160 -628 -57 -918 16 -45 27 -83 26 -85 -2 -2 -305 22 -672
52 -368 31 -784 65 -924 77 -140 12 -258 24 -262 28 -3 3 -36 143 -72 311 -37
168 -73 320 -81 338 -26 58 -51 62 -350 62 -294 0 -321 -5 -349 -59 -27 -51
-17 -97 28 -133 19 -16 49 -18 259 -18 130 0 237 -2 237 -4 0 -7 60 -281 301
-1368 126 -571 229 -1045 229 -1053 0 -8 -6 -15 -14 -15 -7 0 -45 -16 -84 -35
-187 -94 -303 -314 -274 -520 25 -169 132 -318 283 -390 40 -19 80 -35 87 -35
8 0 12 -3 10 -7 -57 -113 -62 -129 -66 -225 -4 -80 -1 -107 18 -162 103 -312
500 -407 733 -175 134 134 170 326 93 495 l-25 54 394 0 394 0 -24 -53 c-97
-212 0 -480 210 -578 179 -84 370 -53 508 83 159 158 176 416 37 590 -19 23
-30 49 -30 67 0 20 -10 42 -29 63 l-29 33 -1064 5 -1063 5 -51 23 c-133 60
-205 205 -170 342 28 109 107 192 208 218 24 6 551 47 1172 91 1187 84 1159
81 1186 130 5 11 73 244 150 518 78 274 143 505 146 514 4 13 25 18 100 24 53
4 135 15 183 25 610 127 1019 714 927 1330 -98 650 -707 1096 -1358 994z m422
-224 c100 -25 248 -93 334 -154 69 -49 186 -169 235 -240 91 -132 156 -322
167 -491 41 -590 -479 -1090 -1067 -1025 -462 51 -818 407 -869 869 -49 447
231 878 663 1021 167 54 367 62 537 20z m-2847 -1507 c125 -9 232 -20 239 -24
9 -6 86 -593 88 -672 0 -16 -15 -17 -227 -15 l-227 3 -78 345 c-42 190 -77
355 -77 368 -1 20 3 23 27 18 15 -3 129 -13 255 -23z m722 -58 c104 -8 209
-18 233 -21 l42 -5 0 -315 0 -314 -228 0 -228 0 -37 328 c-21 180 -38 330 -37
335 0 10 39 9 255 -8z m735 -61 c179 -14 197 -18 216 -38 l20 -23 -27 -244
c-15 -134 -28 -254 -28 -266 l-1 -23 -215 0 -215 0 0 305 0 305 27 0 c15 0
116 -7 223 -16z m626 -373 c79 -41 214 -91 243 -91 37 -1 41 -13 24 -73 l-16
-57 -243 0 c-134 0 -244 3 -244 8 0 19 32 308 36 320 2 9 22 0 63 -27 32 -22
94 -58 137 -80z m-1726 -447 c0 -8 18 -169 40 -356 22 -188 39 -342 37 -343
-9 -8 -341 -25 -347 -18 -4 4 -42 166 -84 358 -43 193 -79 356 -81 363 -3 9
44 12 215 12 192 0 220 -2 220 -16z m632 -321 c-2 -186 -4 -339 -5 -339 -6 -4
-330 -25 -333 -21 -4 3 -84 661 -84 690 0 4 96 7 213 7 l212 0 -3 -337z m618
323 c0 -19 -59 -554 -65 -592 -6 -35 13 -31 -252 -50 l-93 -7 0 195 c0 107 3
256 7 331 l6 137 199 0 c163 0 198 -2 198 -14z m665 2 c-3 -7 -41 -141 -84
-297 -44 -156 -81 -285 -83 -286 -7 -6 -339 -27 -345 -22 -3 4 10 144 28 312
l33 305 228 0 c178 0 226 -3 223 -12z m-1952 -1769 c48 -13 112 -70 139 -123
29 -56 29 -146 0 -202 -45 -88 -145 -143 -237 -131 -124 17 -205 110 -205 234
0 74 26 130 78 174 66 55 141 72 225 48z m1550 0 c48 -13 112 -70 139 -123 79
-154 -60 -353 -231 -333 -128 15 -211 108 -211 234 1 75 25 129 81 176 63 55
137 70 222 46z"/>
<path d="M4348 4317 c-15 -7 -165 -158 -334 -337 -168 -179 -310 -326 -314
-328 -5 -2 -69 49 -142 113 -73 65 -147 123 -164 131 -86 37 -177 -61 -131
-143 16 -29 375 -342 407 -355 58 -23 80 -5 385 318 459 487 435 458 435 502
0 47 -22 80 -66 98 -39 17 -41 17 -76 1z"/>
</g>
</svg>
